<svg width="30" height="30" viewBox="0 0 30 30" fill="none" xmlns="http://www.w3.org/2000/svg">
<path fill-rule="evenodd" clip-rule="evenodd" d="M19.7422 16.0887H9.84229V13.8887H19.7422V16.0887Z" fill="#002A2A"/>
<path fill-rule="evenodd" clip-rule="evenodd" d="M3 14.9999C3 8.78386 8.53516 4 15.0999 4C21.6647 4 27.1998 8.78386 27.1998 14.9999C27.1998 21.2149 21.6669 25.9987 15.1032 25.9998C12.8763 26.0114 10.6846 25.444 8.74305 24.3531L4.48169 25.9316C4.29423 26.0008 4.09146 26.0176 3.89517 25.9802C3.69888 25.9429 3.51648 25.8527 3.36755 25.7195C3.21861 25.5863 3.10878 25.415 3.04984 25.2241C2.9909 25.0332 2.98508 24.8298 3.033 24.6358L4.22539 19.8157C3.42469 18.3374 3.00362 16.6833 3 15.0021L3 14.9999ZM5.19998 14.9988C5.20316 16.4391 5.59742 17.8515 6.34067 19.0853C6.49097 19.3349 6.53607 19.634 6.46607 19.9169L5.66638 23.1465L8.47026 22.1081C8.62715 22.0501 8.79518 22.0287 8.96159 22.0455C9.12799 22.0623 9.28837 22.1168 9.43055 22.2049C11.1312 23.2579 13.0941 23.8107 15.0944 23.7998H15.0999C20.6791 23.7998 24.9998 19.7838 24.9998 14.9999C24.9998 10.2161 20.6791 6.19998 15.0999 6.19998C9.52185 6.19998 5.19998 10.215 5.19998 14.9988Z" fill="#002A2A"/>
</svg>
