<svg width="23" height="23" viewBox="0 0 23 23" fill="none" xmlns="http://www.w3.org/2000/svg">
<g id="Group">
<path id="Vector" d="M22.6508 10.6591L18.1643 6.17268C18.0538 6.06221 17.9227 5.97457 17.7783 5.91478C17.634 5.85499 17.4793 5.82422 17.3231 5.82422C17.1668 5.82422 17.0121 5.85499 16.8678 5.91478C16.7234 5.97457 16.5923 6.06221 16.4818 6.17268C16.2587 6.39579 16.1334 6.69838 16.1334 7.01389C16.1334 7.32941 16.2587 7.632 16.4818 7.8551L18.9375 10.3107H5.94747C5.63195 10.3107 5.32936 10.436 5.10625 10.6591C4.88315 10.8822 4.75781 11.1848 4.75781 11.5004C4.75781 11.8159 4.88315 12.1185 5.10625 12.3416C5.32936 12.5647 5.63195 12.69 5.94747 12.69H18.9375L16.4818 15.1456C16.2587 15.3687 16.1334 15.6713 16.1334 15.9868C16.1334 16.3024 16.2587 16.6049 16.4818 16.8281C16.705 17.0512 17.0075 17.1765 17.3231 17.1765C17.6386 17.1765 17.9412 17.0511 18.1643 16.828L22.6508 12.3415C22.8739 12.1184 22.9992 11.8158 22.9992 11.5003C22.9992 11.1848 22.8739 10.8822 22.6508 10.6591Z" fill="#003D3D"/>
<path id="Vector_2" d="M13.8793 18.2414C13.5638 18.2414 13.2612 18.3667 13.0381 18.5898C12.815 18.8129 12.6897 19.1155 12.6897 19.431V20.6207H2.37931V2.37931H12.6897V3.56897C12.6897 3.88448 12.815 4.18708 13.0381 4.41018C13.2612 4.63328 13.5638 4.75862 13.8793 4.75862C14.1948 4.75862 14.4974 4.63328 14.7205 4.41018C14.9436 4.18708 15.069 3.88448 15.069 3.56897V1.98276C15.069 1.72238 15.0177 1.46455 14.918 1.22399C14.8184 0.98343 14.6723 0.764853 14.4882 0.580737C14.3041 0.39662 14.0855 0.250571 13.845 0.150929C13.6044 0.0512856 13.3466 0 13.0862 0H1.98276C1.4569 0 0.952576 0.208897 0.580737 0.580737C0.208897 0.952576 0 1.4569 0 1.98276V21.0172C0 21.5431 0.208897 22.0474 0.580737 22.4193C0.952576 22.7911 1.4569 23 1.98276 23H13.0862C13.3466 23 13.6044 22.9487 13.845 22.8491C14.0855 22.7494 14.3041 22.6034 14.4882 22.4193C14.6723 22.2351 14.8184 22.0166 14.918 21.776C15.0177 21.5355 15.069 21.2776 15.069 21.0172V19.431C15.069 19.1155 14.9436 18.8129 14.7205 18.5898C14.4974 18.3667 14.1948 18.2414 13.8793 18.2414Z" fill="#003D3D"/>
</g>
</svg>
