<svg width="40" height="40" viewBox="0 0 40 40" fill="none" xmlns="http://www.w3.org/2000/svg">
<g clip-path="url(#clip0_1995_15550)">
<path d="M19.9994 0.75H20C23.8073 0.75 27.5291 1.87899 30.6947 3.99421C33.8604 6.10943 36.3277 9.11587 37.7847 12.6333C39.2417 16.1508 39.6229 20.0214 38.8801 23.7555C38.1373 27.4896 36.304 30.9196 33.6118 33.6118C30.9196 36.304 27.4896 38.1374 23.7555 38.8801C20.0213 39.6229 16.1508 39.2417 12.6333 37.7847C9.11585 36.3277 6.10941 33.8604 3.9942 30.6947C1.87898 27.5291 0.749989 23.8073 0.749989 20V19.9994C0.75576 14.8959 2.78568 10.0031 6.39439 6.39441C10.0031 2.78569 14.8959 0.755774 19.9994 0.75ZM16.9698 26.9698L16.9698 26.9699L16.9636 26.9759C16.892 27.0451 16.8348 27.1278 16.7955 27.2193C16.7562 27.3109 16.7355 27.4093 16.7347 27.5088C16.7338 27.6084 16.7528 27.7072 16.7905 27.7994C16.8282 27.8915 16.8839 27.9753 16.9543 28.0457C17.0247 28.1161 17.1085 28.1718 17.2006 28.2095C17.2928 28.2472 17.3916 28.2662 17.4911 28.2653C17.5907 28.2645 17.6891 28.2438 17.7806 28.2045C17.8722 28.1652 17.9549 28.108 18.0241 28.0364L18.024 28.0363L18.0302 28.0302L25.5301 20.5303C25.5302 20.5302 25.5302 20.5302 25.5302 20.5302C25.6708 20.3896 25.7497 20.1988 25.7497 20C25.7497 19.8012 25.6708 19.6104 25.5302 19.4698C25.5302 19.4698 25.5302 19.4698 25.5301 19.4698L18.0336 11.9733C17.8925 11.8383 17.7042 11.7637 17.5088 11.7654C17.3122 11.7671 17.1241 11.846 16.985 11.985C16.846 12.1241 16.7671 12.3122 16.7654 12.5088C16.7637 12.7042 16.8383 12.8925 16.9732 13.0336L23.586 19.6464L23.9396 20L23.586 20.3536L16.9698 26.9698Z" stroke="#4A5B72"/>
<path d="M17.2217 12.2695L24.9207 20.0971L17.4086 27.7344" stroke="#4A5B72"/>
</g>
<defs>
<clipPath id="clip0_1995_15550">
<rect width="40" height="40" fill="white" transform="matrix(-1 0 0 1 40 0)"/>
</clipPath>
</defs>
</svg>
