<svg width="90" height="38" viewBox="0 0 90 38" fill="none" xmlns="http://www.w3.org/2000/svg">
<path d="M44.75 19.5C46.2688 19.5 47.5 18.2688 47.5 16.75C47.5 15.2312 46.2688 14 44.75 14C43.2312 14 42 15.2312 42 16.75C42 18.2688 43.2312 19.5 44.75 19.5Z" fill="#A7ACCA"/>
<path d="M33.75 19.5C35.2688 19.5 36.5 18.2688 36.5 16.75C36.5 15.2312 35.2688 14 33.75 14C32.2312 14 31 15.2312 31 16.75C31 18.2688 32.2312 19.5 33.75 19.5Z" fill="#A7ACCA"/>
<path d="M55.75 19.5C57.2688 19.5 58.5 18.2688 58.5 16.75C58.5 15.2312 57.2688 14 55.75 14C54.2312 14 53 15.2312 53 16.75C53 18.2688 54.2312 19.5 55.75 19.5Z" fill="#A7ACCA"/>
</svg>
