<svg width="18" height="18" viewBox="0 0 18 18" fill="none" xmlns="http://www.w3.org/2000/svg">
<path d="M10.0775 8.80054L13.8175 5.06054C13.8754 5.00287 13.9213 4.93429 13.9525 4.85877C13.9838 4.78324 13.9997 4.70227 13.9995 4.62054C14.0005 4.53899 13.9849 4.4581 13.9536 4.38279C13.9223 4.30748 13.876 4.23934 13.8175 4.18254C13.7607 4.12403 13.6925 4.07771 13.6172 4.04642C13.5419 4.01513 13.461 3.99951 13.3795 4.00054C13.2977 4.00027 13.2168 4.01622 13.1412 4.04746C13.0657 4.0787 12.9971 4.12461 12.9395 4.18254L9.19946 7.92254L5.45946 4.18254C5.4018 4.12461 5.33322 4.0787 5.25769 4.04746C5.18217 4.01622 5.10119 4.00027 5.01946 4.00054C4.93792 3.99951 4.85702 4.01513 4.78171 4.04642C4.70641 4.07771 4.63827 4.12403 4.58146 4.18254C4.52295 4.23934 4.47664 4.30748 4.44534 4.38279C4.41405 4.4581 4.39844 4.53899 4.39946 4.62054C4.39919 4.70227 4.41514 4.78324 4.44638 4.85877C4.47762 4.93429 4.52354 5.00287 4.58146 5.06054L8.32146 8.80054L4.58146 12.5405C4.52354 12.5982 4.47762 12.6668 4.44638 12.7423C4.41514 12.8178 4.39919 12.8988 4.39946 12.9805C4.39844 13.0621 4.41405 13.143 4.44534 13.2183C4.47664 13.2936 4.52295 13.3617 4.58146 13.4185C4.63827 13.477 4.70641 13.5234 4.78171 13.5547C4.85702 13.5859 4.93792 13.6016 5.01946 13.6005C5.10119 13.6008 5.18217 13.5849 5.25769 13.5536C5.33322 13.5224 5.4018 13.4765 5.45946 13.4185L9.19946 9.67853L12.9395 13.4185C12.9971 13.4765 13.0657 13.5224 13.1412 13.5536C13.2168 13.5849 13.2977 13.6008 13.3795 13.6005C13.5437 13.6 13.7011 13.5345 13.8173 13.4184C13.9334 13.3022 13.9989 13.1448 13.9995 12.9805C13.9997 12.8988 13.9838 12.8178 13.9525 12.7423C13.9213 12.6668 13.8754 12.5982 13.8175 12.5405L10.0775 8.80054Z" fill="#003D3D"/>
</svg>
