<svg width="30" height="30" viewBox="0 0 30 30" fill="none" xmlns="http://www.w3.org/2000/svg">
<path d="M26.8788 3.84256L26.8487 3.81512C26.2752 3.29024 25.5258 2.9994 24.7484 3C24.3156 3.0004 23.8876 3.09076 23.4915 3.26535C23.0955 3.43994 22.7401 3.69495 22.4479 4.01419L11.3156 16.2017C11.2142 16.3128 11.1372 16.4439 11.0896 16.5866L9.78062 20.5107C9.62927 20.9644 9.70523 21.4661 9.98377 21.8528C10.2645 22.2425 10.7168 22.4752 11.1938 22.4752C11.4001 22.4752 11.6018 22.4328 11.7931 22.3491L15.5831 20.691C15.7209 20.6308 15.8445 20.5422 15.9459 20.4312L27.0782 8.24369C28.2367 6.97555 28.1473 5.00136 26.8788 3.84256ZM12.2886 19.7858L13.0567 17.4831L13.1215 17.4122L14.5773 18.7419L14.5125 18.8128L12.2886 19.7858ZM25.491 6.79382L16.0272 17.1547L14.5714 15.825L24.0352 5.46406C24.2203 5.2614 24.4736 5.14976 24.7485 5.14976C24.9896 5.14976 25.2205 5.23948 25.3993 5.40272L25.4293 5.43016C25.8223 5.7891 25.8499 6.40085 25.491 6.79382Z" fill="#003D3D"/>
<path d="M24.7192 12.9161C24.1256 12.9161 23.6444 13.3973 23.6444 13.991V23.1165C23.6444 24.6237 22.4181 25.85 20.9108 25.85H7.88332C6.37598 25.85 5.14976 24.6237 5.14976 23.1165V10.1948C5.14976 8.68758 6.37605 7.46128 7.88332 7.46128H17.3127C17.9063 7.46128 18.3875 6.98002 18.3875 6.3864C18.3875 5.79278 17.9063 5.31152 17.3127 5.31152H7.88332C5.1906 5.31152 3 7.5022 3 10.1948V23.1164C3 25.809 5.19068 27.9997 7.88332 27.9997H20.9107C23.6034 27.9997 25.794 25.809 25.794 23.1164V13.991C25.7941 13.3973 25.3129 12.9161 24.7192 12.9161Z" fill="#003D3D"/>
</svg>
