<svg width="20" height="20" viewBox="0 0 20 20" fill="none" xmlns="http://www.w3.org/2000/svg">
<path fill-rule="evenodd" clip-rule="evenodd" d="M2.10795 10.0744C2.31476 9.98896 2.55316 9.97657 2.77075 10.04C2.98833 10.1034 3.16727 10.2375 3.26824 10.4127C3.61146 11.0105 4.04305 11.5689 4.55263 12.0744C5.22175 12.7411 6.03427 13.2941 6.94697 13.7038C6.99842 13.7212 7.04782 13.7426 7.0945 13.7678C8.08953 14.1898 9.1867 14.4101 10.2994 14.4112C11.4319 14.4112 12.5167 14.1833 13.5043 13.7685C13.551 13.7432 13.6004 13.7215 13.6518 13.7038C14.5962 13.2798 15.433 12.7027 16.1147 12.0053C16.5946 11.5181 17.0029 10.9833 17.3306 10.4127C17.4316 10.2374 17.6107 10.1034 17.8283 10.04C18.046 9.97669 18.2845 9.98919 18.4913 10.0748C18.6981 10.1604 18.8563 10.3121 18.9311 10.4965C19.0059 10.681 18.9911 10.883 18.8901 11.0583C18.608 11.548 18.2761 12.0159 17.8981 12.4568L19.1574 13.523C19.3202 13.6608 19.4117 13.8479 19.4118 14.0429C19.4119 14.238 19.3205 14.4251 19.1578 14.563C18.9951 14.701 18.7743 14.7786 18.5441 14.7786C18.3139 14.7787 18.0931 14.7013 17.9302 14.5634L16.763 13.5744C16.2624 13.993 15.7105 14.3652 15.1167 14.6847L15.8483 15.92C15.9004 16.0064 15.9318 16.1007 15.9407 16.1975C15.9496 16.2942 15.9358 16.3915 15.9001 16.4837C15.8644 16.5759 15.8075 16.6612 15.7327 16.7347C15.6579 16.8082 15.5667 16.8684 15.4643 16.9119C15.3619 16.9554 15.2504 16.9812 15.1361 16.988C15.0219 16.9948 14.9071 16.9823 14.7986 16.9514C14.6901 16.9204 14.5898 16.8716 14.5037 16.8076C14.4175 16.7437 14.3472 16.6659 14.2966 16.5788L13.5711 15.3524C12.8109 15.6075 12.0056 15.7766 11.1672 15.8458V17.3524C11.1672 17.5474 11.0758 17.7344 10.9131 17.8723C10.7503 18.0102 10.5296 18.0877 10.2994 18.0877C10.0692 18.0877 9.84851 18.0102 9.68576 17.8723C9.52301 17.7344 9.43157 17.5474 9.43157 17.3524V15.845C8.60704 15.7768 7.79787 15.611 7.02768 15.3524L6.30217 16.5781C6.198 16.7509 6.01744 16.8818 5.79985 16.9423C5.58226 17.0027 5.34528 16.9879 5.14054 16.901C4.93581 16.814 4.77993 16.6621 4.70687 16.4782C4.63381 16.2943 4.64949 16.0934 4.75049 15.9193L5.48207 14.684C4.88833 14.3645 4.33646 13.9923 3.8358 13.5737L2.66857 14.5627C2.58851 14.6329 2.49275 14.6889 2.38687 14.7274C2.28099 14.766 2.16712 14.7863 2.05189 14.7871C1.93666 14.788 1.82238 14.7694 1.71573 14.7324C1.60907 14.6954 1.51218 14.6408 1.4307 14.5718C1.34921 14.5027 1.28477 14.4206 1.24114 14.3303C1.1975 14.2399 1.17555 14.1431 1.17655 14.0455C1.17755 13.9478 1.20149 13.8513 1.24697 13.7616C1.29245 13.6719 1.35857 13.5908 1.44145 13.523L2.69981 12.456C2.32209 12.0149 1.99048 11.5467 1.70874 11.0568C1.60787 10.8816 1.59325 10.6796 1.66811 10.4952C1.74297 10.3109 1.90118 10.1592 2.10795 10.0737V10.0744Z" fill="#6E7282"/>
</svg>
