<svg width="20" height="20" viewBox="0 0 20 20" fill="none" xmlns="http://www.w3.org/2000/svg">
<path d="M18.7476 12.4429C17.2015 9.4282 13.8366 6.69122 10 6.69122C6.13649 6.69122 2.78141 9.46157 1.25246 12.4429C1.20255 12.5402 1.17651 12.648 1.17651 12.7574C1.17651 12.8668 1.20255 12.9746 1.25246 13.072C2.79854 16.0866 6.16341 18.8236 10 18.8236C14.3442 18.8236 17.5465 15.414 18.7476 13.0719C18.7975 12.9746 18.8235 12.8668 18.8235 12.7574C18.8235 12.648 18.7975 12.5402 18.7476 12.4429ZM10 17.4449C6.87126 17.4449 4.24495 15.3663 2.66009 12.7574C4.2274 10.1774 6.84534 8.0699 10 8.0699C13.1412 8.0699 15.764 10.1632 17.34 12.7574C15.7478 15.3782 13.111 17.4449 10 17.4449ZM1.39374 5.00827C1.64845 4.72533 2.08435 4.70251 2.36729 4.95726L3.90259 6.33962C4.18549 6.5944 4.20834 7.03024 3.9536 7.31317C3.69885 7.59615 3.26295 7.6189 2.98005 7.36419L1.44475 5.98179C1.16185 5.72708 1.139 5.29121 1.39374 5.00827ZM9.31069 4.6232V1.86585C9.31069 1.48516 9.6193 1.17651 10 1.17651C10.3807 1.17651 10.6894 1.48516 10.6894 1.86585V4.6232C10.6894 5.00389 10.3807 5.31254 10 5.31254C9.6193 5.31254 9.31069 5.00389 9.31069 4.6232ZM4.94028 3.08788C4.78542 2.74007 4.94183 2.3326 5.28964 2.17774C5.63748 2.02288 6.04491 2.17929 6.19977 2.5271L7.25401 4.89498C7.40887 5.24275 7.25246 5.65025 6.90465 5.80511C6.55785 5.95949 6.1499 5.80463 5.99452 5.45575L4.94028 3.08788ZM16.0465 7.31317C15.7917 7.03027 15.8145 6.5944 16.0975 6.33962L17.6328 4.95726C17.9157 4.70251 18.3516 4.72533 18.6063 5.00827C18.8611 5.29117 18.8382 5.72704 18.5553 5.98179L17.02 7.36419C16.737 7.61897 16.3012 7.59604 16.0465 7.31317ZM12.746 4.89498L13.8002 2.5271C13.9551 2.17929 14.3626 2.02288 14.7104 2.17774C15.0582 2.3326 15.2146 2.74007 15.0597 3.08788L14.0055 5.45572C13.8499 5.80511 13.4416 5.95925 13.0954 5.80511C12.7476 5.65025 12.5912 5.24278 12.746 4.89498ZM10 9.37102C8.13278 9.37102 6.61365 10.8902 6.61365 12.7574C6.61365 14.6246 8.13278 16.1438 10 16.1438C11.8673 16.1438 13.3864 14.6246 13.3864 12.7574C13.3864 10.8902 11.8673 9.37102 10 9.37102ZM10 14.7651C8.89298 14.7651 7.99233 13.8644 7.99233 12.7574C7.99233 11.6504 8.89298 10.7497 10 10.7497C11.1071 10.7497 12.0077 11.6504 12.0077 12.7574C12.0077 13.8644 11.1071 14.7651 10 14.7651Z" fill="#6E7282"/>
</svg>
