<svg width="47" height="46" viewBox="0 0 47 46" fill="none" xmlns="http://www.w3.org/2000/svg">
<path d="M26.2547 22.4894L35.8125 12.9317C35.9605 12.7843 36.0778 12.609 36.1577 12.416C36.2375 12.223 36.2783 12.0161 36.2776 11.8072C36.2802 11.5988 36.2403 11.3921 36.1603 11.1996C36.0804 11.0072 35.962 10.8331 35.8125 10.6879C35.6673 10.5384 35.4932 10.42 35.3007 10.34C35.1083 10.2601 34.9015 10.2202 34.6932 10.2228C34.4843 10.2221 34.2773 10.2629 34.0843 10.3427C33.8913 10.4225 33.7161 10.5399 33.5687 10.6879L24.0109 20.2457L14.4532 10.6879C14.3058 10.5399 14.1305 10.4225 13.9375 10.3427C13.7445 10.2629 13.5376 10.2221 13.3287 10.2228C13.1203 10.2202 12.9136 10.2601 12.7211 10.34C12.5287 10.42 12.3545 10.5384 12.2094 10.6879C12.0598 10.8331 11.9415 11.0072 11.8615 11.1996C11.7815 11.3921 11.7416 11.5988 11.7443 11.8072C11.7436 12.0161 11.7843 12.223 11.8642 12.416C11.944 12.609 12.0613 12.7843 12.2094 12.9317L21.7671 22.4894L12.2094 32.0472C12.0613 32.1946 11.944 32.3698 11.8642 32.5629C11.7843 32.7559 11.7436 32.9628 11.7443 33.1717C11.7416 33.3801 11.7815 33.5868 11.8615 33.7792C11.9415 33.9717 12.0598 34.1458 12.2094 34.291C12.3545 34.4405 12.5287 34.5589 12.7211 34.6389C12.9136 34.7188 13.1203 34.7587 13.3287 34.7561C13.5376 34.7568 13.7445 34.716 13.9375 34.6362C14.1305 34.5564 14.3058 34.439 14.4532 34.291L24.0109 24.7332L33.5687 34.291C33.7161 34.439 33.8913 34.5564 34.0843 34.6362C34.2773 34.716 34.4843 34.7568 34.6932 34.7561C35.113 34.7548 35.5152 34.5874 35.812 34.2906C36.1089 33.9937 36.2762 33.5915 36.2776 33.1717C36.2783 32.9628 36.2375 32.7559 36.1577 32.5629C36.0778 32.3698 35.9605 32.1946 35.8125 32.0472L26.2547 22.4894Z" fill="#003D3D"/>
</svg>
