<svg width="15" height="10" viewBox="0 0 15 10" fill="none" xmlns="http://www.w3.org/2000/svg">
<g id="Group">
<path id="Vector" fill-rule="evenodd" clip-rule="evenodd" d="M14.2557 0.244111C14.412 0.400384 14.4997 0.612307 14.4997 0.833277C14.4997 1.05425 14.412 1.26617 14.2557 1.42244L5.9224 9.75578C5.76613 9.912 5.55421 9.99977 5.33324 9.99977C5.11227 9.99977 4.90034 9.912 4.74407 9.75578L0.577405 5.58911C0.497813 5.51224 0.434328 5.42028 0.390654 5.31861C0.34698 5.21694 0.323991 5.10759 0.32303 4.99694C0.322068 4.8863 0.343153 4.77656 0.385053 4.67415C0.426954 4.57174 0.488832 4.47869 0.567076 4.40045C0.645319 4.3222 0.738363 4.26033 0.840777 4.21843C0.94319 4.17653 1.05292 4.15544 1.16357 4.1564C1.27422 4.15736 1.38357 4.18035 1.48524 4.22403C1.58691 4.2677 1.67887 4.33119 1.75574 4.41078L5.33324 7.98828L13.0774 0.244111C13.2337 0.087885 13.4456 0.00012207 13.6666 0.00012207C13.8875 0.00012207 14.0995 0.087885 14.2557 0.244111Z" fill="#F9FAFF"/>
</g>
</svg>
