<svg width="14" height="14" viewBox="0 0 14 14" fill="none" xmlns="http://www.w3.org/2000/svg">
<g id="Group">
<path id="Vector" d="M8.43694 6.73405L13.4236 1.74738C13.5008 1.6705 13.5621 1.57906 13.6037 1.47836C13.6454 1.37765 13.6666 1.26969 13.6663 1.16071C13.6676 1.05199 13.6468 0.944127 13.6051 0.843717C13.5634 0.743307 13.5016 0.652456 13.4236 0.576714C13.3479 0.498701 13.257 0.436947 13.1566 0.395224C13.0562 0.353501 12.9483 0.332685 12.8396 0.334047C12.7306 0.333692 12.6227 0.354957 12.522 0.396611C12.4213 0.438265 12.3298 0.49948 12.2529 0.576714L7.26627 5.56338L2.27961 0.576714C2.20272 0.49948 2.11129 0.438265 2.01058 0.396611C1.90988 0.354957 1.80192 0.333692 1.69294 0.334047C1.58422 0.332685 1.47635 0.353501 1.37594 0.395224C1.27553 0.436947 1.18468 0.498701 1.10894 0.576714C1.03093 0.652456 0.969173 0.743307 0.92745 0.843717C0.885727 0.944127 0.864911 1.05199 0.866274 1.16071C0.865918 1.26969 0.887183 1.37765 0.928837 1.47836C0.970491 1.57906 1.03171 1.6705 1.10894 1.74738L6.09561 6.73405L1.10894 11.7207C1.03171 11.7976 0.970491 11.889 0.928837 11.9897C0.887183 12.0904 0.865918 12.1984 0.866274 12.3074C0.864911 12.4161 0.885727 12.524 0.92745 12.6244C0.969173 12.7248 1.03093 12.8156 1.10894 12.8914C1.18468 12.9694 1.27553 13.0311 1.37594 13.0729C1.47635 13.1146 1.58422 13.1354 1.69294 13.134C1.80192 13.1344 1.90988 13.1131 2.01058 13.0715C2.11129 13.0298 2.20272 12.9686 2.27961 12.8914L7.26627 7.90471L12.2529 12.8914C12.3298 12.9686 12.4213 13.0298 12.522 13.0715C12.6227 13.1131 12.7306 13.1344 12.8396 13.134C13.0586 13.1333 13.2685 13.046 13.4234 12.8911C13.5783 12.7363 13.6656 12.5264 13.6663 12.3074C13.6666 12.1984 13.6454 12.0904 13.6037 11.9897C13.5621 11.889 13.5008 11.7976 13.4236 11.7207L8.43694 6.73405Z" fill="#003D3D"/>
</g>
</svg>
