<svg width="32" height="32" viewBox="0 0 32 32" fill="none" 
xmlns="http://www.w3.org/2000/svg">
<g clip-path="url(#clip0_717_12677)">
<!-- Белый круг вокруг крестика -->
<!-- <path d="M16 32C24.8366 32 32 24.8366 32 16C32 7.16344 
24.8366 0 16 0C7.16344 0 0 7.16344 0 16C0 24.8366 7.16344 
32 16 32Z" fill="white" fill-opacity="0"/> -->
<path d="M21.7878 24.4373C21.4395 24.4384 21.0944 24.3703 20.7725 24.2371C20.4507 24.1038 20.1585 23.9081 19.9128 23.6611L16.0003 19.7498L12.0878 23.663C11.5905 24.1602 10.9161 24.4396 10.2128 24.4396C9.50956 24.4396 8.8351 24.1602 8.33782 23.663C7.84054 23.1657 7.56117 22.4912 7.56117 21.788C7.56117 21.0847 7.84054 20.4102 8.33782 19.913L12.2503 15.9998L8.3372 12.0873C7.83992 11.5901 7.56055 10.9156 7.56055 10.2123C7.56055 9.50907 7.83992 8.83461 8.3372 8.33733C8.83448 7.84005 9.50894 7.56068 10.2122 7.56068C10.9155 7.56068 11.5899 7.84005 12.0872 8.33733L16.0003 12.2498L19.9128 8.33671C20.1591 8.09048 20.4514 7.89516 20.7731 7.7619C21.0948 7.62865 21.4396 7.56006 21.7878 7.56006C22.136 7.56006 22.4809 7.62865 22.8026 7.7619C23.1243 7.89516 23.4166 8.09048 23.6628 8.33671C23.9091 8.58294 24.1044 8.87525 24.2376 9.19697C24.3709 9.51868 24.4395 9.86349 24.4395 10.2117C24.4395 10.5599 24.3709 10.9047 24.2376 11.2265C24.1044 11.5482 23.9091 11.8405 23.6628 12.0867L19.7503 15.9998L23.6634 19.9123C24.0342 20.2831 24.2867 20.7554 24.389 21.2697C24.4913 21.784 24.4387 22.317 24.238 22.8014C24.0373 23.2858 23.6974 23.6997 23.2614 23.9909C22.8254 24.2822 22.3128 24.4375 21.7884 24.4373H21.7878Z" fill="#5F5F5F"/>
</g>
<defs>
<clipPath id="clip0_717_12677">
<rect width="32" height="32" fill="white" fill-opacity="0"/>
</clipPath>
</defs>
</svg>
