<svg width="15" height="14" viewBox="0 0 15 14" fill="none" xmlns="http://www.w3.org/2000/svg">
<g clip-path="url(#clip0_838_12846)">
<path d="M12.4495 2.0505C11.1267 0.727693 9.37079 0 7.5 0C5.62921 0 3.87332 0.727693 2.5505 2.0505C1.22769 3.37332 0.5 5.12921 0.5 7C0.5 8.87079 1.22769 10.6267 2.5505 11.9495C3.87332 13.2723 5.62921 14 7.5 14C9.37079 14 11.1267 13.2723 12.4495 11.9495C13.7723 10.6267 14.5 8.87079 14.5 7C14.5 5.12921 13.7723 3.37332 12.4495 2.0505ZM11.8868 11.3868C10.7142 12.5593 9.15572 13.2045 7.5 13.2045C5.84428 13.2045 4.28577 12.5593 3.11322 11.3868C0.694444 8.96801 0.694444 5.03199 3.11322 2.61322C4.28577 1.44066 5.84428 0.795455 7.5 0.795455C9.15572 0.795455 10.7142 1.44066 11.8868 2.61322C14.3056 5.03199 14.3056 8.96801 11.8868 11.3868Z" fill="black"/>
<path d="M10.5832 3.91542C10.427 3.75927 10.1766 3.75927 10.0205 3.91542L7.49858 6.4373L4.97669 3.91542C4.82055 3.75927 4.57013 3.75927 4.41398 3.91542C4.25784 4.07156 4.25784 4.32198 4.41398 4.47813L6.93587 7.00001L4.41398 9.5219C4.25784 9.67804 4.25784 9.92846 4.41398 10.0846C4.49058 10.1612 4.5937 10.2025 4.69387 10.2025C4.79403 10.2025 4.89715 10.1642 4.97375 10.0846L7.49563 7.56272L10.0175 10.0846C10.0941 10.1612 10.1972 10.2025 10.2974 10.2025C10.4005 10.2025 10.5007 10.1642 10.5773 10.0846C10.7334 9.92846 10.7334 9.67804 10.5773 9.5219L8.06129 7.00001L10.5832 4.47813C10.7393 4.32198 10.7393 4.07156 10.5832 3.91542Z" fill="black"/>
</g>
<defs>
<clipPath id="clip0_838_12846">
<rect width="14" height="14" fill="white" transform="translate(0.5)"/>
</clipPath>
</defs>
</svg>
