<svg width="28" height="30" viewBox="0 0 28 30" fill="none" xmlns="http://www.w3.org/2000/svg">
<path fill-rule="evenodd" clip-rule="evenodd" d="M8.93195 0H18.9844L27.8578 8.97018V26.1956C27.8578 28.2872 26.1649 30 24.0937 30H8.932C6.86248 30 5.16956 28.2872 5.16956 26.1956V3.80443C5.16956 1.71275 6.86248 0 8.93195 0Z" fill="#E5252A"/>
<path fill-rule="evenodd" clip-rule="evenodd" d="M18.9846 0L27.858 8.97018H19.9413C19.4138 8.97018 18.9846 8.53471 18.9846 8.0015V0ZM0.967961 12.7746H21.4103C21.8649 12.7746 22.2364 13.1501 22.2364 13.6096V21.1893C22.2364 21.6487 21.8649 22.0242 21.4103 22.0242H0.967961C0.513337 22.0242 0.141846 21.6487 0.141846 21.1893V13.6096C0.141846 13.1501 0.513395 12.7746 0.967961 12.7746Z" fill="#B71D21"/>
<path d="M5.98553 14.3201H4.44356C4.31647 14.3201 4.19458 14.3711 4.10471 14.4619C4.01484 14.5528 3.96436 14.6759 3.96436 14.8044V19.9924C3.96436 20.1209 4.01484 20.2441 4.10471 20.3349C4.19458 20.4257 4.31647 20.4767 4.44356 20.4767C4.57065 20.4767 4.69254 20.4257 4.78241 20.3349C4.87228 20.2441 4.92277 20.1209 4.92277 19.9924V18.4725H5.98547C7.09994 18.4725 8.00664 17.5561 8.00664 16.4297V16.3629C8.0067 15.2365 7.1 14.3201 5.98553 14.3201ZM7.04829 16.4297C7.04829 17.0219 6.57152 17.5038 5.98553 17.5038H4.92277V15.2887H5.98547C6.57146 15.2887 7.04823 15.7706 7.04823 16.3628V16.4297H7.04829ZM11.1423 14.3201H9.60043C9.47334 14.3201 9.35145 14.3711 9.26159 14.4619C9.17172 14.5528 9.12123 14.6759 9.12123 14.8044V19.9924C9.12123 20.1209 9.17172 20.2441 9.26159 20.3349C9.35145 20.4257 9.47334 20.4767 9.60043 20.4767H11.1423C12.2568 20.4767 13.1635 19.5603 13.1635 18.434V16.3629C13.1635 15.2365 12.2568 14.3201 11.1423 14.3201ZM12.2051 18.4339C12.2051 19.0262 11.7283 19.508 11.1423 19.508H10.0796V15.2887H11.1423C11.7283 15.2887 12.2051 15.7706 12.2051 16.3628V18.4339ZM15.3297 15.2887V16.6295H17.551C17.6781 16.6295 17.8 16.6805 17.8899 16.7713C17.9797 16.8622 18.0302 16.9854 18.0302 17.1138C18.0302 17.2423 17.9797 17.3655 17.8899 17.4563C17.8 17.5471 17.6781 17.5982 17.551 17.5982H15.3297V19.9924C15.3297 20.1209 15.2792 20.2441 15.1893 20.3349C15.0995 20.4257 14.9776 20.4767 14.8505 20.4767C14.7234 20.4767 14.6015 20.4257 14.5116 20.3349C14.4218 20.2441 14.3713 20.1209 14.3713 19.9924V14.8044C14.3713 14.6759 14.4218 14.5528 14.5116 14.4619C14.6015 14.3711 14.7234 14.3201 14.8505 14.3201H17.9343C18.0614 14.3201 18.1833 14.3711 18.2732 14.4619C18.3631 14.5528 18.4136 14.6759 18.4136 14.8044C18.4136 14.9329 18.3631 15.0561 18.2732 15.1469C18.1833 15.2377 18.0614 15.2887 17.9343 15.2887H15.3297Z" fill="white"/>
</svg>
