<svg width="23" height="22" viewBox="0 0 23 22" fill="none" xmlns="http://www.w3.org/2000/svg">
<g id="Group">
<path id="Vector" d="M20.9008 2.8099C21.2018 3.05923 21.4554 3.22689 21.6531 3.44184C22.1432 3.9706 22.1174 4.71431 21.6273 5.20009C21.1545 5.66867 20.4194 5.68586 19.9035 5.22158C19.6842 5.02383 19.508 4.78309 19.3274 4.57675L17.9991 5.9395L20.0454 7.94709C20.4537 8.35119 20.5956 8.82836 20.3807 9.36573C20.0497 10.2083 19.005 10.4233 18.3258 9.77842C17.6938 9.17658 17.0877 8.54464 16.4687 7.92559C16.3741 7.83102 16.2752 7.74504 16.1119 7.59028L10.3427 13.4239C10.4158 13.5787 10.476 13.7076 10.5448 13.8366C11.6797 15.9989 11.2584 18.66 9.50874 20.3924C7.76338 22.112 5.09806 22.4946 2.94001 21.3339C0.734676 20.1388 -0.400234 17.6626 0.128531 15.195C0.627204 12.8607 2.66058 11.0724 5.05507 10.8488C6.16419 10.7457 7.21312 10.9348 8.18468 11.4722C8.477 11.6355 8.63176 11.5883 8.8553 11.3647C12.475 7.73214 16.0947 4.10817 19.7229 0.48419C20.5053 -0.293911 21.623 -0.109058 21.9412 0.858195C22.1045 1.35257 21.9799 1.79536 21.6145 2.16076C21.4253 2.35421 21.219 2.52187 20.9008 2.8099ZM8.66185 16.3901C8.65326 14.6964 7.27331 13.325 5.57954 13.3336C3.88577 13.3422 2.51442 14.7222 2.52302 16.4159C2.53162 18.1054 3.90727 19.4725 5.59674 19.4725C7.2948 19.4682 8.66615 18.0882 8.66185 16.3901Z" fill="#003D3D"/>
</g>
</svg>
