<svg width="40" height="40" viewBox="0 0 40 40" fill="none" xmlns="http://www.w3.org/2000/svg">
<g clip-path="url(#clip0_1995_15538)">
  <g clip-path="url(#clip0_1995_15538)">
    <!-- Окружность -->
    <path  d="M20.0006 0.75H20C16.1927 0.75 12.4709 1.87899 9.30528 3.99421C6.13964 6.10943 3.67231 9.11587 2.21533 12.6333C0.758341 16.1508 0.377126 20.0214 1.11989 23.7555C1.86266 27.4896 3.69604 30.9196 6.3882 33.6118C9.08036 36.304 12.5104 38.1374 16.2445 38.8801C19.9787 39.6229 23.8492 39.2417 27.3667 37.7847C30.8841 36.3277 33.8906 33.8604 36.0058 30.6947C38.121 27.5291 39.25 23.8073 39.25 20V19.9994C39.2442 14.8959 37.2143 10.0031 33.6056 6.39441C29.9969 2.78569 25.1041 0.755774 20.0006 0.75Z" stroke="#147373" fill="#147373"/>
    
    <!-- Лишнее -->
    <path d="M23.0302 26.9698L23.0302 26.9699L23.0364 26.9759C23.108 27.0451 23.1652 27.1278 23.2045 27.2193C23.2438 27.3109 23.2645 27.4093 23.2653 27.5088C23.2662 27.6084 23.2472 27.7072 23.2095 27.7994C23.1718 27.8915 23.1161 27.9753 23.0457 28.0457C22.9753 28.1161 22.8915 28.1718 22.7994 28.2095C22.7072 28.2472 22.6084 28.2662 22.5089 28.2653C22.4093 28.2645 22.3109 28.2438 22.2194 28.2045C22.1278 28.1652 22.0451 28.108 21.9759 28.0364L21.976 28.0363L21.9698 28.0302L14.4699 20.5303C14.4698 20.5302 14.4698 20.5302 14.4698 20.5302C14.3292 20.3896 14.2503 20.1988 14.2503 20C14.2503 19.8012 14.3292 19.6104 14.4698 19.4698C14.4698 19.4698 14.4698 19.4698 14.4699 19.4698L21.9664 11.9733C22.1075 11.8383 22.2958 11.7637 22.4912 11.7654C22.6878 11.7671 22.8759 11.846 23.015 11.985C23.154 12.1241 23.2329 12.3122 23.2346 12.5088C23.2363 12.7042 23.1617 12.8925 23.0268 13.0336L16.414 19.6464L16.0604 20L16.414 20.3536L23.0302 26.9698Z M22.7783 12.2695L15.0793 20.0971L22.5914 27.7344" stroke="white"/>
  </g>
</g>
<defs>
<clipPath id="clip0_1995_15538">
<rect width="40" height="40" fill="white"/>
</clipPath>
</defs>
</svg>
