<svg width="30" height="56" viewBox="0 0 30 56" fill="none" xmlns="http://www.w3.org/2000/svg">
<path id="Union" fill-rule="evenodd" clip-rule="evenodd" d="M10.7981 17.7937C12.9613 11.8177 19.5595 8.72683 25.5355 10.8901L28.8206 1.81478C17.8325 -2.16277 5.70037 3.52045 1.72282 14.5086C-2.25472 25.4967 3.42849 37.6288 14.4166 41.6064L17.7018 32.5311C11.7257 30.3679 8.63487 23.7697 10.7981 17.7937ZM19.2017 38.2063C17.0385 44.1823 10.4403 47.2732 4.46433 45.11L1.17922 54.1853C12.1674 58.1628 24.2995 52.4796 28.277 41.4914C32.2546 30.5033 26.5713 18.3712 15.5832 14.3937L12.2981 23.4689C18.2741 25.6322 21.365 32.2303 19.2017 38.2063Z" fill="#F2F4FF"/>
</svg>
