<svg width="21" height="20" viewBox="0 0 21 20" fill="none" xmlns="http://www.w3.org/2000/svg">
<g clip-path="url(#clip0_811_2443)">
<path d="M19.31 12.051C19.691 12.051 20 12.365 20 12.751V17.669C19.994 18.339 19.873 18.869 19.601 19.263C19.273 19.739 18.693 19.955 17.854 20L1.95102 19.998C1.30502 19.952 0.78302 19.696 0.444021 19.221C0.142021 18.798 -0.00197946 18.271 2.05441e-05 17.663V12.75C2.05441e-05 12.364 0.309021 12.05 0.690021 12.05C1.07002 12.05 1.37802 12.364 1.37802 12.75V17.663C1.37802 17.996 1.44302 18.235 1.56002 18.399C1.64102 18.513 1.78402 18.583 2.00002 18.6L17.817 18.601C18.237 18.578 18.444 18.501 18.472 18.461C18.556 18.338 18.618 18.068 18.622 17.661V12.75C18.622 12.364 18.93 12.05 19.311 12.05L19.31 12.051ZM9.99002 1.8118e-05C10.214 1.8118e-05 10.413 0.108018 10.539 0.276018L14.82 4.58402C15.09 4.85602 15.092 5.29902 14.824 5.57402C14.7607 5.63898 14.6851 5.69066 14.6016 5.72604C14.5181 5.76143 14.4283 5.77979 14.3377 5.78007C14.247 5.78035 14.1571 5.76254 14.0734 5.72767C13.9896 5.69281 13.9137 5.64159 13.85 5.57702L10.679 2.38802V12.031C10.679 12.418 10.371 12.731 9.99002 12.731C9.89871 12.7305 9.80841 12.712 9.72428 12.6765C9.64015 12.641 9.56384 12.5892 9.49975 12.5242C9.43565 12.4592 9.38501 12.3822 9.35074 12.2975C9.31647 12.2129 9.29923 12.1223 9.30002 12.031V2.38302L6.17202 5.57402C6.05762 5.69162 5.90466 5.76404 5.74119 5.778C5.57772 5.79196 5.4147 5.74652 5.28202 5.65002L5.19702 5.57602C5.06745 5.44416 4.99468 5.26679 4.99431 5.08193C4.99394 4.89706 5.06599 4.7194 5.19502 4.58702L9.49002 0.207018C9.59783 0.0957503 9.74032 0.0245077 9.89402 0.00501812H9.90502C9.92885 0.0014765 9.95293 -0.000195267 9.97702 1.8118e-05H9.99002Z" fill="#0EAE0B"/>
</g>
<defs>
<clipPath id="clip0_811_2443">
<rect width="20" height="20" fill="white" transform="translate(0.5)"/>
</clipPath>
</defs>
</svg>
