<svg width="24" height="23" viewBox="0 0 24 23" fill="none" xmlns="http://www.w3.org/2000/svg">
<path d="M8.69606 6.98449L10.9214 4.75911V16.5313C10.9214 16.8172 11.035 17.0915 11.2372 17.2936C11.4394 17.4958 11.7136 17.6094 11.9996 17.6094C12.2855 17.6094 12.5597 17.4958 12.7619 17.2936C12.9641 17.0915 13.0777 16.8172 13.0777 16.5313V4.75911L15.3031 6.98449C15.4031 7.08505 15.522 7.16489 15.6529 7.21943C15.7838 7.27397 15.9242 7.30215 16.066 7.30234C16.2079 7.30254 16.3483 7.27474 16.4794 7.22056C16.6105 7.16637 16.7296 7.08686 16.8298 6.98657C16.9301 6.88628 17.0097 6.76719 17.0638 6.63612C17.118 6.50505 17.1458 6.36458 17.1456 6.22275C17.1454 6.08092 17.1173 5.94053 17.0627 5.80961C17.0082 5.67869 16.9283 5.55981 16.8278 5.4598L12.7619 1.39392C12.6618 1.2938 12.543 1.21438 12.4122 1.1602C12.2814 1.10601 12.1412 1.07812 11.9996 1.07812C11.858 1.07812 11.7178 1.10601 11.587 1.1602C11.4562 1.21438 11.3373 1.2938 11.2372 1.39392L7.17137 5.4598C7.07081 5.55981 6.99097 5.67869 6.93643 5.80961C6.88188 5.94053 6.85371 6.08092 6.85352 6.22275C6.85332 6.36458 6.88112 6.50505 6.9353 6.63612C6.98949 6.76719 7.069 6.88628 7.16929 6.98657C7.26958 7.08686 7.38867 7.16637 7.51974 7.22056C7.65081 7.27474 7.79128 7.30254 7.93311 7.30234C8.07494 7.30215 8.21533 7.27397 8.34625 7.21943C8.47717 7.16489 8.59605 7.08505 8.69606 6.98449Z" fill="#00696A"/>
<path d="M21.3438 10.4219C21.0578 10.4219 20.7836 10.5355 20.5814 10.7377C20.3792 10.9398 20.2656 11.2141 20.2656 11.5V19.7656H3.73438V11.5C3.73438 11.2141 3.62079 10.9398 3.4186 10.7377C3.21641 10.5355 2.94219 10.4219 2.65625 10.4219C2.37031 10.4219 2.09609 10.5355 1.8939 10.7377C1.69171 10.9398 1.57813 11.2141 1.57812 11.5V20.125C1.57812 20.6016 1.76744 21.0586 2.10442 21.3956C2.4414 21.7326 2.89844 21.9219 3.375 21.9219H20.625C21.1016 21.9219 21.5586 21.7326 21.8956 21.3956C22.2326 21.0586 22.4219 20.6016 22.4219 20.125V11.5C22.4219 11.2141 22.3083 10.9398 22.1061 10.7377C21.9039 10.5355 21.6297 10.4219 21.3438 10.4219Z" fill="#00696A"/>
</svg>
