<svg width="30" height="30" viewBox="0 0 30 30" fill="none" xmlns="http://www.w3.org/2000/svg">
<g id="Group">
<path id="Vector" d="M28.7298 10.9259C28.2403 10.4391 27.4489 10.4412 26.962 10.9307L11.9354 26.0386C9.98588 27.9881 6.81957 27.9881 4.86642 26.0359C2.91473 24.0832 2.91474 20.9169 4.86666 18.965L20.3381 3.41235C21.5552 2.19527 23.534 2.19527 24.7547 3.41498C25.975 4.63528 25.975 6.61387 24.7544 7.83452L11.9377 20.651L11.9354 20.6536C11.4471 21.1392 10.658 21.1385 10.1707 20.6513C9.68265 20.1632 9.68265 19.3721 10.1707 18.884L16.3572 12.6962C16.8453 12.208 16.8453 11.4165 16.357 10.9284C15.8688 10.4403 15.0773 10.4404 14.5892 10.9286L8.40281 17.1162C6.93846 18.5806 6.93846 20.9546 8.40293 22.419C9.86734 23.8834 12.2414 23.8834 13.7058 22.419C13.7075 22.4173 13.7089 22.4155 13.7105 22.4138L26.5221 9.60222C28.7191 7.40525 28.7191 3.84372 26.5221 1.64676C24.3249 -0.548919 20.7636 -0.548919 18.5679 1.64676L3.0965 17.1995C0.170608 20.1254 0.170608 24.8743 3.09861 27.8037C6.02854 30.7321 10.7774 30.7321 13.7056 27.804L28.7346 12.6938C29.2214 12.2043 29.2193 11.4128 28.7298 10.9259Z" fill="#4D9697"/>
</g>
</svg>
