<svg width="24" height="24" viewBox="0 0 24 24" fill="none" xmlns="http://www.w3.org/2000/svg">
<g clip-path="url(#clip0_189_1453)">
<path d="M11.9868 23.25C18.2 23.25 23.2368 18.2132 23.2368 12C23.2368 5.7868 18.2 0.75 11.9868 0.75C5.77361 0.75 0.736816 5.7868 0.736816 12C0.736816 18.2132 5.77361 23.25 11.9868 23.25Z" fill="#CC3333"/>
<path d="M11.2556 22.35C17.0649 22.35 21.7743 17.6406 21.7743 11.8312C21.7743 6.0219 17.0649 1.3125 11.2556 1.3125C5.44622 1.3125 0.736816 6.0219 0.736816 11.8312C0.736816 17.6406 5.44622 22.35 11.2556 22.35Z" fill="#F44336"/>
<path d="M4.48682 5.56877C5.33057 4.23752 7.13057 3.13127 9.00557 2.79377C9.47432 2.71877 9.94307 2.68127 10.3368 2.83127C10.6368 2.94377 10.8806 3.22502 10.7118 3.54377C10.5806 3.80627 10.2243 3.91877 9.94307 4.01252C8.18419 4.59292 6.6675 5.74033 5.63057 7.27502C5.25557 7.83752 4.69307 9.39377 3.99932 9.00002C3.26807 8.56877 3.41807 7.21877 4.48682 5.56877Z" fill="#FF8A80"/>
</g>
<defs>
<clipPath id="clip0_189_1453">
<rect width="24" height="24" fill="white"/>
</clipPath>
</defs>
</svg>
