<svg width="28" height="30" viewBox="0 0 28 30" fill="none" xmlns="http://www.w3.org/2000/svg">
<path fill-rule="evenodd" clip-rule="evenodd" d="M8.1243 0H18.175L27.0502 8.97018V26.1956C27.0502 28.2872 25.3556 30 23.286 30H8.12436C6.05484 30 4.36023 28.2872 4.36023 26.1956V3.80443C4.36017 1.71275 6.05484 0 8.1243 0Z" fill="#0263D1"/>
<path fill-rule="evenodd" clip-rule="evenodd" d="M18.175 0L27.0502 8.97018H19.1335C18.6059 8.97018 18.175 8.53471 18.175 8.0015V0ZM1.77582 12.7746H20.6024C21.0571 12.7746 21.4286 13.1501 21.4286 13.6096V21.1893C21.4286 21.6487 21.0571 22.0242 20.6024 22.0242H1.77582C1.3212 22.0242 0.949707 21.6487 0.949707 21.1893V13.6096C0.949765 13.1501 1.3212 12.7746 1.77582 12.7746Z" fill="#014FA7"/>
<path d="M10.3788 14.3203H8.83685C8.70976 14.3203 8.58787 14.3713 8.498 14.4622C8.40813 14.553 8.35764 14.6762 8.35764 14.8046V19.9927C8.35764 20.1211 8.40813 20.2443 8.498 20.3351C8.58787 20.426 8.70976 20.477 8.83685 20.477C8.96394 20.477 9.08583 20.426 9.1757 20.3351C9.26557 20.2443 9.31605 20.1211 9.31605 19.9927V18.4727H10.3788C11.4933 18.4727 12.3999 17.5563 12.3999 16.43V16.3631C12.3999 15.2367 11.4933 14.3203 10.3788 14.3203ZM11.4415 16.4299C11.4415 17.0222 10.9647 17.504 10.3788 17.504H9.31605V15.2889H10.3788C10.9648 15.2889 11.4415 15.7708 11.4415 16.363V16.4299ZM7.255 14.8046V18.4342C7.255 19.5606 6.3483 20.477 5.23383 20.477C4.3749 20.477 3.60745 19.9247 3.32414 19.1027C3.28235 18.9814 3.28994 18.8483 3.34524 18.7326C3.40055 18.617 3.49903 18.5282 3.61905 18.486C3.86879 18.3979 4.14219 18.5314 4.22927 18.7841C4.37855 19.2173 4.78227 19.5084 5.23383 19.5084C5.81982 19.5084 6.29659 19.0265 6.29659 18.4343V14.8047C6.29658 14.6763 6.34706 14.5531 6.43692 14.4622C6.52679 14.3714 6.64867 14.3203 6.77576 14.3203C6.90286 14.3203 7.02475 14.3714 7.11462 14.4622C7.2045 14.553 7.25499 14.6762 7.255 14.8046ZM17.4651 17.6387V19.1405C17.4651 19.8775 16.8712 20.477 16.1412 20.477H14.7451C14.0151 20.477 13.4211 19.8775 13.4211 19.1405V15.6584C13.4211 14.9205 14.0151 14.3203 14.7451 14.3203H16.1412C16.8713 14.3203 17.4651 14.9206 17.4651 15.6584C17.4651 15.7869 17.4147 15.9101 17.3248 16.0009C17.2349 16.0917 17.113 16.1428 16.9859 16.1428C16.8589 16.1428 16.737 16.0917 16.6471 16.0009C16.5572 15.9101 16.5067 15.7869 16.5067 15.6584C16.5066 15.5605 16.4681 15.4666 16.3996 15.3973C16.331 15.328 16.2381 15.2891 16.1412 15.289H14.7451C14.6482 15.2891 14.5553 15.328 14.4867 15.3973C14.4182 15.4666 14.3797 15.5605 14.3795 15.6584V19.1405C14.3795 19.3399 14.547 19.5083 14.7451 19.5083H16.1412C16.3394 19.5083 16.5067 19.3399 16.5067 19.1405V18.123H15.4423C15.3152 18.123 15.1933 18.072 15.1034 17.9811C15.0136 17.8903 14.9631 17.7671 14.9631 17.6387C14.9631 17.5102 15.0136 17.387 15.1034 17.2962C15.1933 17.2053 15.3152 17.1543 15.4423 17.1543H16.9859C17.2506 17.1543 17.4651 17.3711 17.4651 17.6387Z" fill="white"/>
</svg>
