<svg width="28" height="30" viewBox="0 0 28 30" fill="none" xmlns="http://www.w3.org/2000/svg">
<path fill-rule="evenodd" clip-rule="evenodd" d="M9.06227 0H18.8552L27.5028 8.97018V26.1956C27.5028 28.2872 25.8516 30 23.8352 30H9.06227C7.04581 30 5.39465 28.2872 5.39465 26.1956V3.80443C5.39465 1.71275 7.04587 0 9.06227 0Z" fill="#0AC963"/>
<path fill-rule="evenodd" clip-rule="evenodd" d="M18.8552 0L27.5028 8.97018H19.789C19.275 8.97018 18.8552 8.53471 18.8552 8.0015V0ZM1.30225 12.7746H21.2204C21.6617 12.7746 22.0253 13.1501 22.0253 13.6096V21.1893C22.0253 21.6487 21.6617 22.0242 21.2204 22.0242H1.30225C0.85928 22.0242 0.497314 21.6487 0.497314 21.1893V13.6096C0.497258 13.1501 0.85928 12.7746 1.30225 12.7746Z" fill="#08A14F"/>
<path d="M6.31371 14.3201H4.81128C4.68744 14.3201 4.56868 14.3711 4.48112 14.462C4.39355 14.5528 4.34436 14.676 4.34436 14.8044V19.9924C4.34436 20.1209 4.39355 20.2441 4.48112 20.3349C4.56868 20.4257 4.68744 20.4768 4.81128 20.4768C4.93511 20.4768 5.05387 20.4257 5.14144 20.3349C5.229 20.2441 5.2782 20.1209 5.2782 19.9924V18.4725H6.31365C7.3996 18.4725 8.283 17.5561 8.283 16.4298V16.3629C8.28305 15.2365 7.3996 14.3201 6.31371 14.3201ZM7.34922 16.4297C7.34922 17.022 6.88467 17.5038 6.31371 17.5038H5.27825V15.2887H6.31371C6.88473 15.2887 7.34922 15.7706 7.34922 16.3628V16.4297ZM13.2266 14.8044V19.9924C13.2266 20.0983 13.1931 20.2013 13.1313 20.2855C13.0695 20.3698 12.9828 20.4308 12.8844 20.4591C12.7861 20.4874 12.6815 20.4814 12.5867 20.4422C12.4919 20.403 12.4121 20.3326 12.3595 20.2419L10.2218 16.5511V19.9924C10.2218 20.1209 10.1726 20.2441 10.085 20.3349C9.99746 20.4257 9.8787 20.4768 9.75487 20.4768C9.63103 20.4768 9.51227 20.4257 9.42471 20.3349C9.33714 20.2441 9.28795 20.1209 9.28795 19.9924V14.8044C9.288 14.6986 9.32149 14.5956 9.38329 14.5114C9.44509 14.4271 9.53179 14.3662 9.63013 14.3379C9.72848 14.3096 9.83305 14.3155 9.92785 14.3547C10.0227 14.3939 10.1025 14.4643 10.1551 14.555L12.2927 18.2458V14.8044C12.2927 14.676 12.3419 14.5528 12.4295 14.4619C12.5171 14.3711 12.6359 14.3201 12.7597 14.3201C12.8835 14.3201 13.0023 14.3711 13.0899 14.4619C13.1774 14.5528 13.2266 14.676 13.2266 14.8044ZM18.1785 17.6384V19.1403C18.1785 19.8772 17.5998 20.4768 16.8885 20.4768H15.5282C14.8178 20.4768 14.2398 19.8772 14.2398 19.1403V15.6582C14.2398 14.9203 14.8178 14.3201 15.5282 14.3201H16.8885C17.5998 14.3201 18.1785 14.9204 18.1785 15.6582C18.1785 15.7867 18.1293 15.9098 18.0417 16.0007C17.9542 16.0915 17.8354 16.1425 17.7116 16.1425C17.5877 16.1425 17.469 16.0915 17.3814 16.0007C17.2938 15.9098 17.2446 15.7867 17.2446 15.6582C17.2445 15.5603 17.207 15.4664 17.1402 15.3971C17.0734 15.3278 16.9829 15.2889 16.8885 15.2888H15.5282C15.3361 15.2888 15.1737 15.4579 15.1737 15.6582V19.1403C15.1737 19.3396 15.3361 19.5081 15.5282 19.5081H16.8885C17.0816 19.5081 17.2446 19.3396 17.2446 19.1403V18.1228H16.2092C16.0854 18.1228 15.9666 18.0717 15.879 17.9809C15.7915 17.8901 15.7423 17.7669 15.7423 17.6384C15.7423 17.51 15.7915 17.3868 15.879 17.296C15.9666 17.2051 16.0854 17.1541 16.2092 17.1541H17.7116C17.9695 17.1541 18.1785 17.3709 18.1785 17.6384Z" fill="white"/>
</svg>
