<svg width="26" height="30" viewBox="0 0 26 30" fill="none" xmlns="http://www.w3.org/2000/svg">
<path fill-rule="evenodd" clip-rule="evenodd" d="M5.01613 0H15.963L25.2396 8.86259V26.099C25.2396 28.2478 23.3279 30 20.9836 30H5.01613C2.66176 30 0.760132 28.2478 0.760132 26.099V3.90102C0.760132 1.74302 2.66176 0 5.01613 0Z" fill="#FFB11F"/>
<path fill-rule="evenodd" clip-rule="evenodd" d="M15.953 0V8.78882H25.2397L15.953 0Z" fill="#FFDEAD"/>
<path d="M9.77503 15.5857V13.5383C9.77503 13.317 9.58384 13.1418 9.34238 13.1418H8.135C7.89354 13.1418 7.70236 13.317 7.70236 13.5383V15.5857L7.02824 17.3933C6.83706 17.9005 6.92763 18.4631 7.26971 18.8965C7.60174 19.3299 8.1551 19.5882 8.73869 19.5882C9.32228 19.5882 9.86559 19.3299 10.2077 18.8965C10.5498 18.4631 10.6403 17.9005 10.4491 17.3933L9.77503 15.5857ZM9.49332 18.4261C9.15124 18.878 8.32618 18.878 7.97405 18.4261C7.80301 18.2048 7.75269 17.9097 7.8533 17.6515L8.07467 17.0428H9.39271L9.62412 17.6515C9.71469 17.9097 9.67441 18.2048 9.49332 18.4261ZM6.06238 2.14886V3.27399C6.06238 3.49532 6.25356 3.67055 6.49502 3.67055H8.13505V5.34902H6.49502C6.25356 5.34902 6.06238 5.52425 6.06238 5.74558V6.61247C6.06238 6.83379 6.25356 7.01824 6.49502 7.01824H8.13505V8.68746H6.49502C6.25356 8.68746 6.06238 8.86269 6.06238 9.08402V9.96012C6.06238 10.1814 6.25356 10.3567 6.49502 10.3567H8.13505V11.6293C8.13505 11.8507 8.33627 12.0259 8.57774 12.0259H10.9824C11.2139 12.0259 11.4151 11.8507 11.4151 11.6293V10.7532C11.4151 10.5411 11.2139 10.3567 10.9824 10.3567H9.33237V8.68746H10.9824C11.2139 8.68746 11.4151 8.51222 11.4151 8.2909V7.4148C11.4151 7.19347 11.2139 7.01824 10.9824 7.01824H9.33237V5.34902H10.9824C11.2139 5.34902 11.4151 5.16457 11.4151 4.94325V4.07636C11.4151 3.85504 11.2139 3.67059 10.9824 3.67059H9.33237V2.13965L6.06238 2.14886Z" fill="white"/>
</svg>
