<svg width="406" height="242" viewBox="0 0 406 242" fill="none" xmlns="http://www.w3.org/2000/svg">
<path d="M12.1477 164.17V149.682L76.0682 48.5455H86.5795V70.9886H79.4773L31.1818 147.409V148.545H117.261V164.17H12.1477ZM80.6136 194V159.767V153.02V48.5455H97.375V194H80.6136Z" fill="black"/>
<path d="M276.27 140.566C260.538 177.082 218.281 191.99 183.921 176.601H183.884C160.642 166.554 145.68 143.651 143.026 122.265C135.075 68.7425 188.785 25.651 239.247 44.9145C257.736 51.8604 273.152 66.2501 279.307 85.3925C285.116 103.314 283.788 123.328 276.27 140.566Z" fill="#006AB0"/>
<path d="M273.879 73.3541C273.347 78.1002 273.347 83.038 271.638 87.4444C269.967 91.8104 265.409 95.8333 260.969 94.3163C253.421 91.6926 256.186 79.2573 249.691 75.2545C246.388 73.1657 241.904 74.343 238.752 76.6605C234.615 79.6979 232.032 84.3666 228.463 88.0498C219.822 96.9668 208.903 93.2029 209.667 80.2294C209.969 75.749 211.416 71.3426 211.301 66.8623C211.187 63.5995 209.969 60.0677 207.083 58.47C201.769 55.584 195.277 61.2416 189.313 59.9904C184.224 58.8871 181.607 53.9896 180.77 48.6717C216.438 29.9699 257.074 44.7699 273.879 73.3541ZM189.35 166.651C188.782 169.995 186.844 172.918 184.759 175.575C184.49 175.918 184.187 176.261 183.921 176.601H183.884C160.642 166.554 145.68 143.651 143.026 122.265C145.495 122.376 148.001 122.453 150.393 122.985C155.442 124.084 158.331 128.794 159.468 133.54C160.494 137.946 160.457 142.541 161.553 146.907C162.697 151.273 165.428 155.679 169.761 156.897C175.075 158.377 181.301 154.768 185.973 157.691C188.859 159.514 189.922 163.308 189.35 166.651ZM269.587 152.642C261.196 164.825 249.108 173.985 235.109 178.767C233.666 169.261 245.463 167.633 238.752 153.742C236.498 148.898 229.99 140.375 234.043 133.274C236.135 129.668 239.896 131.414 242.93 129.668C244.867 128.568 244.79 126.782 246.081 125.073C247.561 123.099 250.03 121.39 252.425 120.859C256.563 119.947 261.272 122.302 262.678 126.288C264.121 130.277 262.257 134.603 262.106 138.821C261.917 144.286 264.918 149.793 269.587 152.642ZM149.962 155.625C150.904 157.543 153.259 158.215 155.351 158.679C153.147 163.641 150.368 168.326 147.069 172.639C143.985 172.087 141.304 169.161 143.016 166.285C146.676 160.136 150.272 156.254 149.962 155.625Z" fill="#02C839"/>
<path d="M164.883 97.7908C160.547 98.7 156.433 100.455 152.775 102.954C149.117 105.454 145.988 108.65 143.566 112.36C141.144 116.07 139.476 120.22 138.659 124.575C137.841 128.929 137.89 133.402 138.802 137.737C142.629 155.951 160.504 167.623 178.745 163.792C196.959 159.968 208.631 142.09 204.803 123.876C200.975 105.638 183.097 93.9664 164.883 97.7908ZM177.235 156.604C170.444 157.909 163.412 156.495 157.655 152.665C151.897 148.835 147.874 142.897 146.453 136.13C145.032 129.363 146.326 122.308 150.056 116.486C153.787 110.663 159.655 106.539 166.397 105.002C169.784 104.292 173.278 104.256 176.679 104.896C180.08 105.536 183.322 106.84 186.219 108.733C189.116 110.626 191.612 113.072 193.564 115.93C195.516 118.788 196.885 122.002 197.595 125.389C200.582 139.624 191.469 153.614 177.235 156.604Z" fill="#C8C8C8"/>
<path d="M178.479 163.506C178.387 163.07 178.473 162.615 178.716 162.242C178.96 161.868 179.341 161.607 179.777 161.515C197.06 157.882 208.167 140.869 204.541 123.587C200.908 106.291 183.888 95.1874 166.609 98.8033C166.179 98.8792 165.737 98.785 165.375 98.5406C165.013 98.2962 164.761 97.9208 164.671 97.4937C164.581 97.0666 164.66 96.6213 164.893 96.2518C165.125 95.8823 165.492 95.6176 165.916 95.5137C185.011 91.5109 203.821 103.785 207.83 122.894C211.843 141.992 199.566 160.792 180.47 164.805C180.034 164.896 179.579 164.811 179.206 164.567C178.833 164.324 178.571 163.942 178.479 163.506Z" fill="black"/>
<path d="M147.981 170.22C149.01 170.509 150.117 171.283 150.066 172.37C150.026 173.136 150.638 171.956 136.356 194.129C133.036 199.275 132.098 204.159 126.676 200.476C125.128 199.427 123.783 197.896 123.245 196.06C121.94 191.586 128.432 187.324 139.703 168.074C140.046 167.489 140.409 166.877 140.988 166.534C141.567 166.187 142.424 166.228 142.794 166.799C143.41 167.741 143.642 167.775 145.337 168.875C146.41 169.571 147.517 170.281 148.768 170.503" fill="#FFA01F"/>
<path d="M184.032 154.207C196.934 147.454 201.918 131.52 195.164 118.619C188.411 105.717 172.477 100.733 159.575 107.486C146.674 114.24 141.69 130.173 148.443 143.075C155.196 155.977 171.13 160.961 184.032 154.207Z" fill="white"/>
<path d="M151.503 139.836C148.385 132.103 150.019 122.722 155.573 116.499C156.316 115.675 157.567 116.789 156.827 117.62C151.691 123.378 150.177 132.05 153.067 139.207C153.481 140.24 151.923 140.869 151.506 139.84L151.503 139.836ZM128.758 194.159L142.687 172.565C143.292 171.629 144.705 172.548 144.099 173.479L130.171 195.074C129.568 196.006 128.152 195.094 128.758 194.159ZM271.625 123.402C275.005 109.577 274.282 94.5618 269.587 81.1275C269.217 80.0746 270.808 79.523 271.171 80.5725C275.982 94.487 276.706 109.489 273.256 123.802C272.994 124.878 271.356 124.481 271.625 123.398V123.402Z" fill="black"/>
<path d="M287.148 164.17V149.682L351.068 48.5455H361.58V70.9886H354.477L306.182 147.409V148.545H392.261V164.17H287.148ZM355.614 194V159.767V153.02V48.5455H372.375V194H355.614Z" fill="black"/>
</svg>
